<svg width="113" height="33" viewBox="0 0 113 33" fill="none" xmlns="http://www.w3.org/2000/svg">
<g clip-path="url(#clip0_7675_3453)">
<path d="M21.1601 10.5952H16.1205C16.1205 7.52898 13.6311 5.03956 10.5649 5.03956C7.49862 5.03956 5.0092 7.52898 5.0092 10.5952H0C0 4.73597 4.73597 0 10.5952 0C16.4545 0 21.1601 4.73597 21.1601 10.5952Z" fill="#FCCD33"/>
<path d="M10.838 21.5851H0.0302734V16.5455H10.838C13.3578 16.5455 15.574 14.9365 16.3937 12.5685L21.16 14.1776C19.6724 18.6099 15.5133 21.5851 10.838 21.5851Z" fill="white"/>
<path d="M4.91819 33L0.151855 31.391C1.60908 26.9586 5.76823 23.9834 10.4435 23.9834H21.2512V29.023H10.4435C7.92371 29.023 5.70751 30.632 4.91819 33Z" fill="white"/>
<path d="M40.5595 6.16284V8.53083H32.2716V13.3882H39.6488V15.8169H32.2716V21.5547H40.5595V23.9834H32.2716H30.9662H29.6304V6.16284H40.5595Z" fill="white"/>
<path d="M49.2117 14.0561C49.1207 14.0258 48.9992 13.9954 48.8474 13.9651C48.726 13.9347 48.5742 13.9044 48.4224 13.9044C47.9367 13.9044 47.4813 13.9954 47.0563 14.1472C46.6312 14.299 46.2669 14.5115 45.9633 14.7848C45.6598 15.058 45.4169 15.3616 45.2347 15.7259C45.0526 16.0902 44.9615 16.4545 44.9615 16.8795L44.9311 24.0442H42.5024V11.9614H44.4454L44.9615 13.2972C45.2955 12.8114 45.7508 12.4168 46.2973 12.1132C46.8437 11.8096 47.542 11.6578 48.3617 11.6578C48.9081 11.6578 49.5153 11.7185 50.2136 11.8703L49.576 14.1776C49.4546 14.1472 49.3332 14.0865 49.2117 14.0561Z" fill="white"/>
<path d="M58.2283 14.0561C58.1373 14.0258 58.0158 13.9954 57.864 13.9651C57.7426 13.9347 57.5908 13.9044 57.439 13.9044C56.9533 13.9044 56.4979 13.9954 56.0729 14.1472C55.6478 14.299 55.2835 14.5115 54.9799 14.7848C54.6764 15.058 54.4335 15.3616 54.2513 15.7259C54.0692 16.0902 53.9781 16.4545 53.9781 16.8795L53.9477 24.0442H51.519V11.9614H53.462L53.9781 13.2972C54.3121 12.8114 54.7674 12.4168 55.3139 12.1132C55.8603 11.8096 56.5586 11.6578 57.3783 11.6578C57.9247 11.6578 58.5319 11.7185 59.2302 11.8703L58.5926 14.1776C58.4712 14.1472 58.3498 14.0865 58.2283 14.0561Z" fill="white"/>
<path d="M71.2826 11.9614V24.0138H69.2182L68.8539 22.6173C68.4289 23.1638 67.8824 23.5888 67.2449 23.862C66.577 24.1353 65.9394 24.2871 65.2412 24.2871C64.3911 24.2871 63.6018 24.1353 62.8732 23.8013C62.1446 23.4674 61.5071 23.012 60.9606 22.4655C60.4141 21.8887 59.9891 21.2208 59.6552 20.4618C59.3212 19.7029 59.1694 18.8528 59.1694 18.0028C59.1694 17.1224 59.3212 16.3027 59.6552 15.5437C59.9891 14.7847 60.4141 14.0865 60.9606 13.54C61.5071 12.9632 62.1446 12.5078 62.8732 12.2042C63.6018 11.8703 64.3911 11.7185 65.2412 11.7185C65.9091 11.7185 66.5466 11.8399 67.1842 12.1132C67.7913 12.3864 68.3681 12.7811 68.8539 13.3275L69.2182 11.9917H71.2826V11.9614ZM65.2108 22.1619C65.6966 22.1619 66.1519 22.0405 66.6073 21.828C67.0324 21.6155 67.427 21.3119 67.7306 20.9476C68.0646 20.5833 68.3074 20.1279 68.4896 19.6118C68.6717 19.0957 68.7628 18.5796 68.7628 18.0028C68.7628 17.426 68.6717 16.8795 68.4896 16.3938C68.3074 15.8777 68.0646 15.4526 67.7306 15.058C67.3967 14.6937 67.0324 14.3901 66.6073 14.1776C66.1823 13.9651 65.6966 13.8436 65.2108 13.8436C64.7251 13.8436 64.2697 13.9651 63.8143 14.1776C63.3893 14.3901 62.9946 14.6937 62.6911 15.058C62.3571 15.4223 62.1142 15.8777 61.9321 16.3938C61.7499 16.9099 61.6589 17.426 61.6589 18.0028C61.6589 18.5796 61.7499 19.1261 61.9321 19.6118C62.1142 20.1279 62.3571 20.5529 62.6911 20.9476C63.025 21.3119 63.3893 21.6155 63.8143 21.828C64.2697 22.0405 64.7251 22.1619 65.2108 22.1619Z" fill="white"/>
<path d="M75.9883 24.0138H73.5596V11.9614H75.5025L76.0186 13.0239C76.4133 12.6293 76.899 12.3257 77.4759 12.0524C78.0527 11.8096 78.6598 11.6881 79.3277 11.6881C79.7528 11.6881 80.2689 11.7489 80.8153 11.9007C81.3618 12.0221 81.8779 12.2953 82.3636 12.6596C82.8494 13.0239 83.244 13.54 83.578 14.2079C83.9119 14.8758 84.0637 15.7259 84.0637 16.7581V24.0745H81.7564V16.6973C81.7564 16.1812 81.6654 15.7259 81.5136 15.3616C81.3618 14.9972 81.1493 14.724 80.876 14.4811C80.6028 14.2686 80.3296 14.1168 79.9956 14.0258C79.6617 13.9347 79.3277 13.874 78.9634 13.874C78.6902 13.874 78.3866 13.9347 78.0527 14.0258C77.7187 14.1168 77.3848 14.299 77.0812 14.5115C76.7776 14.724 76.5347 15.0276 76.3222 15.3616C76.1097 15.6955 76.0186 16.1205 76.0186 16.6366V24.0138H75.9883Z" fill="white"/>
<path d="M97.2396 5.61639V24.0138H95.2966L94.7806 22.7691C94.2948 23.2549 93.7484 23.6495 93.1108 23.9227C92.5036 24.196 91.775 24.3478 90.9554 24.3478C90.1053 24.3478 89.3463 24.196 88.6481 23.862C87.9498 23.5281 87.3427 23.0727 86.7962 22.5262C86.2801 21.9494 85.8551 21.2815 85.5818 20.5226C85.2783 19.7636 85.1265 18.9135 85.1265 18.0635C85.1265 17.1831 85.2783 16.3634 85.5818 15.6044C85.8854 14.8455 86.2801 14.1472 86.7962 13.6008C87.3123 13.0239 87.9195 12.5686 88.6481 12.265C89.3463 11.931 90.1357 11.7792 90.9554 11.7792C91.8054 11.7792 92.534 11.931 93.1412 12.2043C93.7484 12.4775 94.2948 12.8721 94.7502 13.3882V5.61639H97.2396ZM91.1982 22.1619C91.7143 22.1619 92.1697 22.0709 92.5947 21.9191C93.0197 21.7369 93.4144 21.494 93.718 21.1601C94.0519 20.8261 94.2948 20.3708 94.477 19.8547C94.6591 19.3386 94.7502 18.7314 94.7502 18.0028C94.7502 17.2438 94.6591 16.6063 94.477 16.0902C94.2948 15.5741 94.0216 15.1491 93.718 14.8151C93.3841 14.4812 93.0197 14.2383 92.5947 14.1169C92.1697 13.9651 91.684 13.9043 91.1982 13.9043C90.7125 13.9043 90.2571 13.9954 89.8017 14.2079C89.3767 14.4204 88.982 14.6937 88.6784 15.0883C88.3445 15.4526 88.1016 15.908 87.9195 16.3938C87.7373 16.9099 87.6462 17.426 87.6462 18.0028C87.6462 18.5796 87.7373 19.1261 87.9195 19.6118C88.1016 20.1279 88.3445 20.5529 88.6784 20.9476C89.0124 21.3119 89.3767 21.6155 89.8017 21.828C90.2267 22.0405 90.7125 22.1619 91.1982 22.1619Z" fill="white"/>
<path d="M102.188 5.61639V24.0138H99.7593V5.61639H102.188Z" fill="white"/>
<path d="M111.386 14.0562C111.295 14.0258 111.174 13.9954 111.022 13.9651C110.901 13.9347 110.749 13.9044 110.597 13.9044C110.111 13.9044 109.656 13.9954 109.231 14.1472C108.806 14.299 108.442 14.5115 108.138 14.7848C107.834 15.058 107.592 15.3616 107.409 15.7259C107.227 16.0902 107.136 16.4545 107.136 16.8795L107.167 24.0138H104.738V11.9614H106.681L107.197 13.2972C107.531 12.8114 107.986 12.4168 108.533 12.1132C109.079 11.8096 109.777 11.6578 110.597 11.6578C111.144 11.6578 111.751 11.7185 112.449 11.8703L111.811 14.1776C111.629 14.1472 111.508 14.0865 111.386 14.0562Z" fill="white"/>
</g>
<defs>
<clipPath id="clip0_7675_3453">
<rect width="112.388" height="33" fill="white"/>
</clipPath>
</defs>
</svg>
